<?xml version="1.0" encoding="UTF-8"?>
<svg id="Camada_2" data-name="Camada 2" xmlns="http://www.w3.org/2000/svg" viewBox="0 0 287.24 316.63">
  <g id="Camada_1-2" data-name="Camada 1">
    <path d="M241.79,170.55c26.65-7.84,44.67-26.84,44.67-50.16,0-29.39-31.15-51.53-72.49-51.53h-38.59C169.11,29.35,132.32,0,88.17,0,37.81,0,0,34.87,0,81.31c0,41.37,30.02,73.53,72.17,80.07l-39.65,63.76c-33.11,52.31-21.55,91.5,26.84,91.5,30.17,0,53.29-30.56,57.01-72.69l33.11,69.55h37.23l-41.75-87.9h30.02v-58.78c8.42,3.33,18.42,5.68,28.21,6.86l42.91,51.92h41.14l-45.45-55.05ZM64.46,279.41c-29,0-38.01-23.31-21.16-54.27l35.66-60.15,32.13,67.59c-.39,26.84-20.18,46.83-46.63,46.83ZM113.36,159.08c9.44-2.67,18.36-6.79,26.35-12.04v67.51l-26.35-55.47ZM211.62,163.69c-14.3,0-27.62-2.74-36.64-7.44v-56.03c-23.22,0-34.96,11.47-35.25,34.4-20.03,7.7-47.72,1.99-76.44-18.03C25.27,89.93,7.44,54.86,21.55,34.68c14.11-20.18,53.29-15.28,91.5,11.36,8.46,5.99,18.97,15.31,25.84,22.82h-22.3v31.35h58.39v-25.08c41.34,0,72.3,21.75,72.3,50.55,0,21.75-15.28,38.01-35.66,38.01Z"/>
  </g>
</svg>